<?xml version="1.0" standalone="no"?><!DOCTYPE svg PUBLIC "-//W3C//DTD SVG 1.1//EN" "http://www.w3.org/Graphics/SVG/1.1/DTD/svg11.dtd"><svg t="1677228566605" class="icon" viewBox="0 0 1024 1024" version="1.1" xmlns="http://www.w3.org/2000/svg" p-id="21319" xmlns:xlink="http://www.w3.org/1999/xlink" width="200" height="200"><path d="M782.867212 306.226173L721.791338 66.685962h12.596238a16.936117 16.936117 0 0 0 16.830266-17.041968V32.496175a17.041968 17.041968 0 0 0-16.830266-17.147819H286.638971a17.041968 17.041968 0 0 0-16.830266 17.147819v17.147819A16.936117 16.936117 0 0 0 286.638971 66.685962h12.278685L238.159335 306.226173zM245.568886 315.117635h488.81869a25.615878 25.615878 0 0 1 25.615877 25.615878V444.573082a4.33988 4.33988 0 0 1-4.33988 4.339881H224.292889a4.33988 4.33988 0 0 1-4.33988-4.339881v-103.839569a25.615878 25.615878 0 0 1 25.615877-25.615878zM212.543458 672.893116v275.847012c0 35.565847 25.298325 64.357246 56.524291 64.357246h440.339054c31.75522 0 56.524292-28.7914 56.524291-64.357246V668.764937z" fill="#FFFFFF" p-id="21320"></path><path d="M765.931094 666.859624a6.139343 6.139343 0 0 0-3.069671-5.398388 118.552822 118.552822 0 0 1-57.794501-104.792226 118.446971 118.446971 0 0 1 57.794501-104.792227 6.456895 6.456895 0 0 0 3.069671-5.504238 5.71594 5.71594 0 0 0-5.398387-6.033492H217.941845a5.71594 5.71594 0 0 0-5.398387 6.033492 6.456895 6.456895 0 0 0 3.069671 5.504238A118.446971 118.446971 0 0 1 273.831032 556.77486a118.552822 118.552822 0 0 1-58.217903 104.792227 6.139343 6.139343 0 0 0-3.069671 5.398387v5.927642l553.387636-4.128179z" fill="#FFFFFF" p-id="21321"></path><path d="M329.296817 24.345669a16.301013 16.301013 0 0 0-15.454207 17.041968v17.147819a16.406864 16.406864 0 0 0 15.454207 17.147819h11.220178L284.94536 315.117635h431.447591L660.397913 24.345669z" fill="#FFE7D4" p-id="21322"></path><path d="M726.978024 75.683275h11.53773a16.406864 16.406864 0 0 0 15.454208-17.147819V41.387637A16.301013 16.301013 0 0 0 738.515754 24.345669h-78.117841l55.995038 290.771966h66.474261z" fill="#FDC79C" p-id="21323"></path><path d="M302.939984 315.117635a31.75522 31.75522 0 0 0-30.802563 32.390324v96.324168a5.398387 5.398387 0 0 0 5.292536 5.504239h439.492248V315.117635z" fill="#FFE7D4" p-id="21324"></path><path d="M781.914555 315.117635h-64.568947v134.218731h90.078974a5.398387 5.398387 0 0 0 5.292537-5.504239v-96.324168A31.75522 31.75522 0 0 0 781.914555 315.117635z" fill="#FDC79C" p-id="21325"></path><path d="M728.989188 440.444904H264.727869a5.610089 5.610089 0 0 0-5.292536 6.033492 6.245193 6.245193 0 0 0 3.069671 5.504238 118.552822 118.552822 0 0 1 57.68865 104.792226 118.658673 118.658673 0 0 1-57.68865 104.792227 5.927641 5.927641 0 0 0-3.069671 5.398387v5.927642l468.495348-3.493075A191.589828 191.589828 0 0 1 697.763222 561.00889 225.462063 225.462063 0 0 1 728.989188 440.444904z" fill="#FFE7D4" p-id="21326"></path><path d="M796.839509 661.567087A118.446971 118.446971 0 0 1 739.574262 556.77486a118.341121 118.341121 0 0 1 57.68865-104.792226 6.245193 6.245193 0 0 0 3.069671-5.504238 5.610089 5.610089 0 0 0-5.292537-6.033492h-79.176349A225.462063 225.462063 0 0 0 685.061134 561.00889a190.531321 190.531321 0 0 0 30.167459 108.391151l84.680587-0.635104V666.859624a5.927641 5.927641 0 0 0-3.069671-5.292537z" fill="#FDC79C" p-id="21327"></path><path d="M259.435333 672.893116v275.847012C259.435333 984.411826 284.416106 1013.097374 316.171326 1013.097374h398.633864V669.505892z" fill="#FFDEC3" p-id="21328"></path><path d="M714.80519 669.505892v343.591482h41.387637c31.75522 0 56.524292-28.7914 56.524292-64.357246V668.764937z" fill="#FDC79C" p-id="21329"></path><path d="M803.084702 326.02026H226.409904L287.591628 75.471573a28.579698 28.579698 0 0 1-26.356833-28.791399V28.7914A28.473847 28.473847 0 0 1 289.179389 0h451.135828a28.367997 28.367997 0 0 1 27.944594 28.7914v17.888774a28.473847 28.473847 0 0 1-26.674385 28.791399zM254.142796 304.215009h521.209014L713.746683 53.666322h26.568534a6.562746 6.562746 0 0 0 6.139342-6.986148V28.7914a6.668596 6.668596 0 0 0-6.139342-6.986149H289.179389a6.668596 6.668596 0 0 0-6.139343 6.986149v17.888774a6.562746 6.562746 0 0 0 6.139343 6.986148h26.145131z" fill="#FF4A4A" p-id="21330"></path><path d="M806.154373 453.358693H214.872174A15.136655 15.136655 0 0 1 199.735519 438.327889V338.722349a36.412652 36.412652 0 0 1 36.412652-36.306802h548.836056A36.412652 36.412652 0 0 1 821.291028 338.722349v99.817242a15.136655 15.136655 0 0 1-15.136655 14.819102zM220.905665 431.976845h578.897664V338.722349a14.924953 14.924953 0 0 0-14.819102-14.924954H236.148171A14.924953 14.924953 0 0 0 220.905665 338.722349z" fill="#FF4A4A" p-id="21331"></path><path d="M751.852947 1024H273.831032a74.095514 74.095514 0 0 1-71.766797-75.259872V666.859624a16.830267 16.830267 0 0 1 9.314864-15.136655 106.803391 106.803391 0 0 0 56.735994-95.265661 106.591689 106.591689 0 0 0-56.735994-95.26566 17.147819 17.147819 0 0 1-9.314864-15.242506 16.830267 16.830267 0 0 1 16.724416-16.936117h588.53008a16.936117 16.936117 0 0 1 7.409552 31.75522 108.17945 108.17945 0 0 0 0 190.531321A16.830267 16.830267 0 0 1 824.254849 666.859624v281.880504a74.095514 74.095514 0 0 1-72.401902 75.259872zM223.975337 669.929295v278.810833A51.97271 51.97271 0 0 0 273.831032 1002.194749h478.021915a52.078561 52.078561 0 0 0 50.384949-53.454621V669.929295a130.302253 130.302253 0 0 1-12.490386-218.581766H236.359873a129.667149 129.667149 0 0 1 53.560471 105.850734 129.137895 129.137895 0 0 1-65.945007 112.731032z" fill="#FF4A4A" p-id="21332"></path><path d="M748.889126 353.541451a73.248708 73.248708 0 0 1 9.632417 0h-2.85797l3.916477 0.846806a12.172834 12.172834 0 0 0 1.799463 0.635105c-3.281373-0.952657-1.270209-0.529254 0 0a21.170147 21.170147 0 0 1 3.281373 2.011164c1.48191 0.952657-2.222865-1.905313 0 0l1.376059 1.376059 1.37606 1.37606c1.693612 2.117015-1.164358-1.693612 0 0a35.671697 35.671697 0 0 1 2.011164 3.387223c1.270209 2.434567-0.740955-2.011164 0 0a13.443043 13.443043 0 0 1 0.635104 1.905313 17.041968 17.041968 0 0 1 0.846806 4.022328v-2.85797a139.299566 139.299566 0 0 1 0 16.301013v4.657433a10.585073 10.585073 0 0 0 21.170147 0v-6.245194a10.585073 10.585073 0 0 0-21.170147 0v6.245194a10.585073 10.585073 0 0 0 21.170147 0 135.700641 135.700641 0 0 0-0.846806-25.404176 37.047757 37.047757 0 0 0-27.309489-28.050445 66.897664 66.897664 0 0 0-14.501551-0.952657 10.585073 10.585073 0 0 0 0 21.170147zM353.007381 952.656605a142.580939 142.580939 0 0 1-21.170146 0H337.341473a59.17056 59.17056 0 0 1-13.654745-3.704775l5.080835 2.117014a55.783337 55.783337 0 0 1-11.961133-6.880297l4.339881 3.387223a58.535456 58.535456 0 0 1-9.632417-9.526566l3.387223 4.33988a47.844532 47.844532 0 0 1-6.245193-10.585073l2.117015 5.080835a52.925367 52.925367 0 0 1-3.069672-11.326029l0.740955 5.610089c-1.164358-9.738268 0-19.899938-0.740955-29.744056v-8.256357a21.170147 21.170147 0 0 0-42.340293 0v11.643581a21.170147 21.170147 0 0 0 42.340293 0v-11.643581h-42.340293v10.585073a154.012818 154.012818 0 0 0 2.752119 38.84722 72.296051 72.296051 0 0 0 56.841844 50.4908 154.436221 154.436221 0 0 0 27.944594 1.270209 21.170147 21.170147 0 1 0 0-42.340294z" fill="#FFFFFF" p-id="21333"></path><path d="M350.996217 385.190821l-21.170146-45.727517h15.242505l7.303701 17.571222c2.011164 5.398387 3.916477 10.585073 6.245193 15.98346 2.222865-5.504238 4.445731-10.585073 6.456895-15.98346l7.19785-17.571222h15.030804l-21.6994 45.727517v26.462683h-14.607402zM390.26684 396.834401c0-11.749431 9.526566-17.888774 31.75522-20.21749a8.573909 8.573909 0 0 0-9.314865-9.420715 30.590862 30.590862 0 0 0-15.030804 5.186686l-5.080835-9.526566a43.928055 43.928055 0 0 1 22.757908-7.19785c13.866446 0 21.170147 8.256357 21.170147 24.133967v31.755221h-11.643581l-1.058508-5.821791a25.510027 25.510027 0 0 1-16.512714 7.19785A15.454207 15.454207 0 0 1 390.26684 396.834401z m31.75522 0v-10.585073c-13.231342 1.799462-17.782923 5.398387-17.782923 10.585073s3.069671 6.139343 7.19785 6.139343a14.289849 14.289849 0 0 0 9.738267-6.562745zM456.423548 333.853215h13.972297V381.062642l18.947282-23.604714h15.560058l-18.947282 22.334505 21.170147 31.755221h-15.560058l-13.231342-22.652058-7.938805 8.997313v13.654745h-13.972297zM519.404735 391.647716v-34.61319h14.289849v32.284473c0 8.468059 2.328716 11.431879 7.621253 11.43188s7.409551-2.011164 10.585073-6.880298v-36.836055h14.3957v54.618978h-11.220178l-1.058507-7.832954a21.805251 21.805251 0 0 1-17.465371 9.209014C524.48557 412.817862 519.404735 404.879057 519.404735 391.647716zM587.043354 340.41596a8.573909 8.573909 0 0 1 17.147819 0 8.573909 8.573909 0 0 1-17.147819 0z m1.37606 16.618566h14.289849v54.618978h-14.289849zM626.525678 392.494521V368.360554h-7.727104v-10.585073l8.362208-0.635105 1.693612-14.607401h11.961133v14.607401h13.443043v11.220178h-13.443043v24.133967c0 6.245193 2.540418 9.209014 7.409551 9.209014a14.924953 14.924953 0 0 0 5.398388-1.164358l2.328716 10.585074A36.518503 36.518503 0 0 1 644.308601 412.817862c-12.807939 0-17.782923-7.938805-17.782923-20.323341z" fill="#FF4A4A" p-id="21334"></path></svg>