<?xml version="1.0" standalone="no"?><!DOCTYPE svg PUBLIC "-//W3C//DTD SVG 1.1//EN" "http://www.w3.org/Graphics/SVG/1.1/DTD/svg11.dtd"><svg t="1677227295213" class="icon" viewBox="0 0 1024 1024" version="1.1" xmlns="http://www.w3.org/2000/svg" p-id="20868" xmlns:xlink="http://www.w3.org/1999/xlink" width="200" height="200"><path d="M47.037445 557.770831A464.732261 464.732261 0 1 0 511.769707 93.03857 464.732261 464.732261 0 0 0 47.037445 557.770831z m0 0" fill="#6B3A24" p-id="20869"></path><path d="M47.037445 511.366693A464.732261 464.732261 0 1 0 511.769707 46.634432 464.732261 464.732261 0 0 0 47.037445 511.366693z m0 0" fill="#F3F3F3" p-id="20870"></path><path d="M37.019678 474.865175A474.750028 474.750028 0 1 0 511.769707 0 474.634881 474.634881 0 0 0 37.019678 474.865175z m0 0" fill="#804F21" p-id="20871"></path><path d="M110.022714 474.865175a18.308332 18.308332 0 0 0-18.193185-18.308333H37.940852c0 6.102777-0.921174 12.090408-0.921174 18.308333s0.69088 11.514674 0.921174 18.193186h53.888677a18.193186 18.193186 0 0 0 18.193185-18.193186z m803.378838 0a18.308332 18.308332 0 0 0 18.308332 18.193186h53.77353c0-6.102777 0.921174-11.514674 0.921174-18.193186s-0.69088-12.205555-0.921174-18.308333H931.709884a18.308332 18.308332 0 0 0-18.308332 18.308333z m-794.512538 83.48139a18.423479 18.423479 0 0 0-21.762735-14.047903l-52.737209 11.514674c2.072641 11.514674 4.60587 24.06567 7.599685 35.810638l52.737209-11.514675a18.308332 18.308332 0 0 0 14.16305-21.647588zM904.650399 391.498932a18.308332 18.308332 0 0 0 17.847746 14.50849h3.799842l52.737209-11.514675c-2.072641-11.514674-4.60587-23.950523-7.599685-35.695491l-52.737209 11.514675A18.308332 18.308332 0 0 0 904.650399 391.498932z m-759.968514 246.989767a18.308332 18.308332 0 0 0-24.06567-9.326886L71.563702 651.039694c4.490723 11.514674 9.672327 22.338468 14.969077 33.277409l49.397953-21.993028a18.423479 18.423479 0 0 0 9.21174-24.06567z m733.94535-327.016755a18.423479 18.423479 0 0 0 16.696278 10.823794 17.156865 17.156865 0 0 0 7.484538-1.612054l49.5131-21.993028c-4.60587-11.514674-9.672327-23.029349-15.084223-33.27741L887.954121 287.866862a18.423479 18.423479 0 0 0-9.326886 24.180816zM186.710446 710.916001a18.423479 18.423479 0 0 0-25.562577-4.030136L117.6224 738.89666c6.793658 10.132914 14.16305 19.80524 21.762734 29.36242L182.68031 736.939166a18.423479 18.423479 0 0 0 4.030136-26.023165z m649.888227-472.101653a17.962892 17.962892 0 0 0 14.738783 7.484539 17.502305 17.502305 0 0 0 10.708648-3.454403l44.101203-31.895648c-6.793658-10.132914-14.278196-19.80524-21.762735-29.36242l-43.755763 31.780502a18.193186 18.193186 0 0 0-4.030136 25.44743zM243.017205 773.325537a18.308332 18.308332 0 0 0-25.792871 1.381761l-36.271225 40.186214c8.751153 8.520859 17.617452 16.811425 27.059485 24.641403L244.283819 799.118408a18.193186 18.193186 0 0 0-1.266614-25.792871z m537.505003-597.035871a18.308332 18.308332 0 0 0 12.205555 4.721017 18.078039 18.078039 0 0 0 13.587316-6.102778L843.046891 134.721691c-8.751153-8.520859-17.732599-16.696278-27.059485-24.526256l-36.271225 40.30136a18.193186 18.193186 0 0 0 1.266614 25.792871zM310.838637 822.72349a18.193186 18.193186 0 0 0-24.871697 6.678512l-27.059485 46.749578c10.363207 6.448218 20.726414 12.781289 31.550208 18.538626l27.174632-47.095019a18.193186 18.193186 0 0 0-6.793658-24.871697zM712.585629 126.661419a18.538626 18.538626 0 0 0 9.096593 2.418082 18.308332 18.308332 0 0 0 15.775104-9.096593l27.059485-46.864725c-10.24806-6.448218-20.726414-12.781289-31.435061-18.423479l-27.174632 47.325312a18.308332 18.308332 0 0 0 6.678511 24.641403zM387.641516 856.922074a18.193186 18.193186 0 0 0-23.029349 11.514674L347.915889 919.907343c11.514674 4.26043 23.029349 8.060272 34.544023 11.514674l16.696278-51.470595a17.962892 17.962892 0 0 0-11.514674-23.029348zM635.78275 92.808276a19.229506 19.229506 0 0 0 5.642191 0.921174A18.308332 18.308332 0 0 0 658.812099 80.602721l16.581132-51.355448c-11.514674-4.145283-23.029349-8.060272-34.544024-11.514674L624.268076 69.778927a18.308332 18.308332 0 0 0 11.514674 23.029349zM469.741145 874.309232a18.308332 18.308332 0 0 0-20.035534 16.235691L444.063421 944.203306q17.962892 2.648375 36.271224 3.799843l5.757337-53.658383a18.193186 18.193186 0 0 0-16.235691-20.035534z m83.941977-799.003261H555.180029a18.308332 18.308332 0 0 0 18.193186-16.350838l6.102777-53.428089C567.500731 3.799843 555.180029 2.533228 543.665355 1.727201l-6.217924 53.543236a18.193186 18.193186 0 0 0 16.235691 20.035534z m0 799.003261a18.193186 18.193186 0 0 0-16.235691 20.035534l6.217924 53.658383c12.320702-0.806027 24.41111-2.072641 36.386371-3.799843l-5.64219-53.658383a18.078039 18.078039 0 0 0-20.150681-16.235691zM467.78365 75.421118h1.957495A18.193186 18.193186 0 0 0 486.091982 55.270437L480.334645 1.727201q-18.308332 1.266614-36.271224 3.799843l5.64219 53.543236a18.078039 18.078039 0 0 0 18.078039 16.350838zM635.78275 856.922074a18.078039 18.078039 0 0 0-11.514674 23.029348l16.696278 51.470595c11.514674-3.339256 23.029349-7.139098 34.544023-11.514674L658.812099 868.551895a18.193186 18.193186 0 0 0-23.029349-11.514675zM382.459912 93.72945a19.920387 19.920387 0 0 0 5.642191-0.921174 18.308332 18.308332 0 0 0 11.514674-23.029349L382.459912 18.308332c-11.514674 3.339256-23.029349 7.254245-34.544023 11.514675L364.612167 80.602721A18.193186 18.193186 0 0 0 382.459912 93.72945z m330.125717 728.99404a18.078039 18.078039 0 0 0-6.678511 24.871697l27.174632 47.095019c10.823794-5.757337 21.187001-11.514674 31.435061-18.538626L737.457326 829.056561a18.078039 18.078039 0 0 0-24.871697-6.678511zM301.857191 129.424941a18.308332 18.308332 0 0 0 15.890251-27.404925L290.342517 55.040144c-10.823794 5.64219-21.187001 11.514674-31.550208 18.423479l27.059485 46.864725a18.423479 18.423479 0 0 0 15.775104 9.096593z m478.665017 643.900596a18.308332 18.308332 0 0 0-1.38176 25.792871l36.386371 40.416507c9.326886-7.829979 18.308332-16.120544 27.059485-24.641403l-36.271225-40.186214a18.193186 18.193186 0 0 0-25.792871-1.381761zM230.696503 181.010683a18.768919 18.768919 0 0 0 12.320702-4.721017 18.193186 18.193186 0 0 0 1.266614-25.792871l-36.271225-40.30136c-9.787473 7.829979-18.308332 16.465984-27.059485 24.526256l36.271225 40.186214a18.078039 18.078039 0 0 0 13.472169 6.102778z m606.017317 529.675025A18.423479 18.423479 0 0 0 840.743956 736.939166l43.755763 31.665354c7.484538-9.442033 14.969077-19.11436 21.762735-29.247273l-44.101204-32.010795a18.193186 18.193186 0 0 0-25.44743 4.030136zM171.971663 246.298887a18.308332 18.308332 0 0 0 10.708647-33.047116l-43.640616-31.780501c-7.599685 9.55718-14.969077 19.229506-21.762735 29.362419l43.986057 31.895649a18.078039 18.078039 0 0 0 10.708647 3.569549z m706.655572 391.498932a18.308332 18.308332 0 0 0 9.326886 24.065669l49.282807 21.993028c5.411897-11.514674 10.478354-21.993028 15.084223-33.277409l-49.5131-22.108175a18.423479 18.423479 0 0 0-24.180816 9.326887zM128.100753 322.410885a18.193186 18.193186 0 0 0 7.484539-34.544023l-49.397954-22.453616C80.775441 276.352187 75.708985 287.866862 71.563702 298.690656l49.397953 21.993028a17.156865 17.156865 0 0 0 7.484539 1.612054z m776.549646 236.050826a18.308332 18.308332 0 0 0 14.047903 21.647588l52.737209 11.514675c2.993815-11.514674 5.527044-23.720229 7.714832-35.810638l-52.852356-11.514674a18.308332 18.308332 0 0 0-21.647588 14.047903zM101.041268 405.777128a18.308332 18.308332 0 0 0 3.684696-36.156078l-52.737209-11.514674c-2.993815 11.514674-5.527044 23.605083-7.599685 35.695491l52.737209 11.514674h3.914989z m0 0" fill="#53311F" p-id="20872"></path><path d="M868.954908 569.055212a20.15068 20.15068 0 0 1-3.799842 0 18.308332 18.308332 0 0 1-14.16305-21.647588 341.179804 341.179804 0 0 0 0-144.278871 18.423479 18.423479 0 0 1 14.16305-21.647588 18.653773 18.653773 0 0 1 21.647588 14.16305 381.826605 381.826605 0 0 1 0 159.363094 18.308332 18.308332 0 0 1-17.847746 14.50849z m-23.835376-224.421005a18.193186 18.193186 0 0 1-16.581131-10.708648 345.440234 345.440234 0 0 0-84.978298-116.413358 18.308332 18.308332 0 0 1 24.526257-27.174632 382.402339 382.402339 0 0 1 93.72945 128.618914 18.308332 18.308332 0 0 1-16.696278 25.677724zM267.313168 764.113797a18.193186 18.193186 0 0 1-11.514675-4.145282 381.135725 381.135725 0 0 1-93.844597-128.734061 18.308332 18.308332 0 1 1 33.392556-14.969077 345.440234 345.440234 0 0 0 84.517711 116.067919 18.308332 18.308332 0 0 1 1.381761 25.792871 18.078039 18.078039 0 0 1-13.587316 5.98763z m282.224671 92.117396a18.193186 18.193186 0 0 1-1.842348-36.386371 344.634207 344.634207 0 0 0 137.024626-44.792084 18.078039 18.078039 0 0 1 24.871697 6.563365 18.308332 18.308332 0 0 1-6.563365 24.986843 379.984257 379.984257 0 0 1-151.533116 49.5131z m-76.342292 0h-1.842348a378.141909 378.141909 0 0 1-151.533116-49.5131 18.193186 18.193186 0 1 1 18.308333-31.550208 344.058473 344.058473 0 0 0 137.024626 44.792084 18.193186 18.193186 0 0 1-1.957495 36.386371z m282.224671-92.117396a18.193186 18.193186 0 0 1-12.205555-31.780501 343.137299 343.137299 0 0 0 84.978298-116.528506 18.193186 18.193186 0 1 1 33.277409 14.969077A381.135725 381.135725 0 0 1 767.971213 759.968515a18.193186 18.193186 0 0 1-12.205555 4.605869z m-426.042955-587.248397a18.308332 18.308332 0 0 1-9.096593-34.544024 379.984257 379.984257 0 0 1 151.533116-49.5131 18.308332 18.308332 0 0 1 3.799843 36.386371 341.064658 341.064658 0 0 0-137.024626 44.792084 18.308332 18.308332 0 0 1-9.21174 2.418082z m364.900034 0a17.502305 17.502305 0 0 1-9.096593-2.533229 343.252446 343.252446 0 0 0-137.024626-44.676937 18.308332 18.308332 0 1 1 3.799842-36.386371 378.257056 378.257056 0 0 1 151.41797 49.5131 18.308332 18.308332 0 0 1 6.678511 24.986844 18.078039 18.078039 0 0 1-15.775104 9.096593z m-539.577646 391.498931a18.423479 18.423479 0 0 1-17.847745-14.508489 381.826605 381.826605 0 0 1 0-159.363095 18.193186 18.193186 0 1 1 35.695491 7.484539 346.246261 346.246261 0 0 0 0 144.278871 18.193186 18.193186 0 0 1-14.047903 21.647588 21.417295 21.417295 0 0 1-3.799843 0z m23.72023-224.421005a17.156865 17.156865 0 0 1-7.484539-1.612054 18.193186 18.193186 0 0 1-9.211739-24.06567A381.135725 381.135725 0 0 1 255.798493 190.222422a18.308332 18.308332 0 0 1 24.41111 27.174632A346.131114 346.131114 0 0 0 195.001012 333.925559a18.193186 18.193186 0 0 1-16.696278 10.823794z m0 0M480.564939 256.4318l-32.010795-77.378612-23.029349 54.694704z m-48.937367-84.402564l-77.378612 32.010795 54.694704 23.029349zM347.915889 220.966603l32.010795 77.378612 23.029349-54.694703z m48.82222 84.287417l77.378612-32.010795-54.694704-23.029349z m0 0M676.199258 728.763747l-32.010795-77.378613-23.029349 54.694704zM627.261891 644.82177l-77.378612 32.010795 54.694704 23.029349z m-84.287417 48.937366l32.010795 77.378613 23.029349-54.694704z m48.82222 84.287417l77.378612-32.010795-54.694703-23.029348z m0 0M335.249747 342.446419L257.871135 310.896211l23.029349 54.694703z m-94.305184-25.101991l-32.010795 77.378613 54.694704-23.029349z m-24.986843 94.305184l77.378612 32.010795-23.029349-54.694704z m94.190037 24.986844l32.010795-77.378613-54.694704 23.029349z m0 0M807.581693 538.080738L730.203081 506.645676l23.029349 54.694704z m-94.305183-25.101991L681.841448 590.35736l54.694704-23.029349z m-24.986844 94.305184l77.378612 32.010795-23.029349-54.694704z m94.190037 24.986844l32.010795-77.378613-54.694704 23.029349z m0 0M730.203081 443.660407l77.378612-32.010795-54.694703-23.029349z m84.287417-48.937366l-32.010795-77.378613-23.029349 54.694704zM765.668278 310.896211l-77.378612 32.010795 54.694704 23.029348zM681.841448 359.257843l32.010795 77.378613 23.029349-54.694704z m0 0M257.871135 639.294726l77.378612-32.010795-54.694704-23.029349z m84.287417-48.937366l-32.010795-77.378613-23.029349 54.694704zM293.336332 506.645676l-77.378612 32.010795 54.694703 23.029349z m-84.402564 48.82222l32.010795 77.378612 23.029349-54.694703z m0 0M644.188463 298.345215l32.010795-77.378612-54.694704 23.029349z m24.986843-94.305184l-77.378612-32.010795 23.029349 54.694704z m-94.190037-24.986843l-32.010795 77.378612 54.694704-23.029349z m-25.10199 94.190037l77.378612 32.010795-23.029349-54.694704z m0 0M448.554144 770.677162l32.010795-77.378613-54.694704 23.029349z m24.986843-94.305184L396.162375 644.82177l23.029349 54.694704z m-94.190037-24.986844L347.915889 728.763747l54.694704-23.029349z m-25.10199 94.190037l77.378612 32.010795-23.029349-54.694703z m0 0M493.461374 182.737884a18.308332 18.308332 0 1 0 18.308333-18.308333 18.308332 18.308332 0 0 0-18.308333 18.308333z m0 0M493.461374 766.992466A18.308332 18.308332 0 1 0 511.769707 748.45384a18.308332 18.308332 0 0 0-18.308333 18.308332z m0 0M785.473518 474.865175a18.308332 18.308332 0 1 0 18.308333-18.308333A18.308332 18.308332 0 0 0 785.473518 474.865175z m0 0M201.334083 474.865175a18.308332 18.308332 0 1 0 18.308332-18.308333 18.308332 18.308332 0 0 0-18.308332 18.308333z m0 0M700.034634 268.291915a18.308332 18.308332 0 1 0 18.308332-18.308332 18.308332 18.308332 0 0 0-18.308332 18.308332z m0 0M286.888114 681.438435a18.308332 18.308332 0 1 0 18.308333-18.308333 18.308332 18.308332 0 0 0-18.308333 18.308333z m0 0M700.034634 681.438435a18.308332 18.308332 0 1 0 18.308332-18.308333 18.308332 18.308332 0 0 0-18.308332 18.308333z m0 0M286.888114 268.291915a18.308332 18.308332 0 1 0 18.308333-18.308332 18.308332 18.308332 0 0 0-18.308333 18.308332z m0 0M511.769707 584.369729c-80.602721 0-146.121219-49.16766-146.121219-109.504554s65.518498-109.619701 146.121219-109.619701S657.775779 414.528281 657.775779 474.865175s-65.518498 109.504554-146.006072 109.504554z m0-182.622737c-59.41572 0-109.619701 33.507703-109.619701 73.118183s50.203981 73.003036 109.619701 73.003036 109.504554-33.507703 109.504554-73.003036-50.203981-73.118183-109.504554-73.118183z m0 0" fill="#53311F" p-id="20873"></path><path d="M566.694704 493.058361h-109.734848a18.308332 18.308332 0 1 1 0-36.501519H566.694704a18.308332 18.308332 0 1 1 0 36.501519z m0 0M493.461374 319.647363a18.308332 18.308332 0 1 0 18.308333-18.308332 18.308332 18.308332 0 0 0-18.308333 18.308332z m0 0M493.461374 630.082987a18.308332 18.308332 0 1 0 18.308333-18.308333 18.308332 18.308332 0 0 0-18.308333 18.308333z m0 0" fill="#53311F" p-id="20874"></path></svg>