<?xml version="1.0" standalone="no"?><!DOCTYPE svg PUBLIC "-//W3C//DTD SVG 1.1//EN" "http://www.w3.org/Graphics/SVG/1.1/DTD/svg11.dtd"><svg t="1677227309212" class="icon" viewBox="0 0 1024 1024" version="1.1" xmlns="http://www.w3.org/2000/svg" p-id="21019" xmlns:xlink="http://www.w3.org/1999/xlink" width="200" height="200"><path d="M823.485039 851.12863L670.060285 293.960473A149.354532 149.354532 0 0 0 627.436016 223.296897l-301.196422-2.939604a139.065916 139.065916 0 0 0-135.674065 104.582091L55.23065 850.450259a139.065916 139.065916 0 0 0 134.769571 173.549741h565.308601a152.520261 152.520261 0 0 0 68.176217-172.87137z" fill="#F9DC8A" p-id="21020"></path><path d="M967.412609 845.701667L814.100916 323.695705a139.178978 139.178978 0 0 0-132.169151-99.833499L627.436016 223.296897A149.354532 149.354532 0 0 1 670.060285 293.960473l153.424754 557.168157a152.520261 152.520261 0 0 1-67.837032 172.87137h78.577896A139.065916 139.065916 0 0 0 967.412609 845.701667z" fill="#FCBF51" p-id="21021"></path><path d="M767.745611 508.777741l-42.963454-179.768135a230.758971 230.758971 0 0 0-72.3595-122.332781L319.568952 203.511096a141.32715 141.32715 0 0 0-138.839792 104.582092L138.104891 471.354312l-12.889036 62.862316a13.79353 13.79353 0 0 0 23.856023 11.306172l39.232417-42.398145a71.00276 71.00276 0 0 1 114.418461 15.037209l56.53086 108.652313a54.269626 54.269626 0 0 0 95.9894 0.67837L503.068124 539.191344a110.913548 110.913548 0 0 1 161.112951-36.858121l80.613007 57.20923a56.53086 56.53086 0 0 0 15.263332 7.575136l3.165728-7.23595a80.726068 80.726068 0 0 0 4.522469-51.103898z" fill="#C67F3E" p-id="21022"></path><path d="M860.569283 450.098708l-42.963453-143.249199a141.32715 141.32715 0 0 0-134.769571-99.833499h-30.413602a230.758971 230.758971 0 0 1 72.3595 122.332781L767.745611 508.777741a80.726068 80.726068 0 0 1-4.522469 50.877774l-3.165728 7.23595a57.096169 57.096169 0 0 0 67.837032-25.778072l28.491554-50.764712a52.121453 52.121453 0 0 0 4.183283-40.249973z" fill="#C16A2F" p-id="21023"></path><path d="M647.334879 0c-14.584962 3.617975-139.065916 36.858121-123.011151 196.727393C566.269626 155.572927 622.574362 49.181848 647.334879 0z" fill="#B7EF5E" p-id="21024"></path><path d="M647.334879 0c-24.760517 49.181848-81.065253 155.572927-123.011151 196.727393a7.462074 7.462074 0 0 0 0 1.582864S670.39947 162.243569 648.804681 0z" fill="#ABDD4A" p-id="21025"></path><path d="M306.679916 231.437341a89.544882 89.544882 0 0 0-63.653748 33.918516S229.797946 282.654301 232.737551 282.654301c-0.565309 0 5.087777-9.723308 1.582864-4.183284s-4.748592 8.140444-7.23595 12.097604a32.448714 32.448714 0 1 0 55.965552 32.787899c2.939605-4.748592 5.992271-9.497184 8.479629-14.4719 9.157999-18.42906 1.808988-3.391852 1.017555-2.148173 2.487358-4.296345-6.218395 6.55758 0 0a94.745722 94.745722 0 0 1 8.253506-8.253506c-5.313901 4.296345 3.617975-1.922049 5.087777-2.487357-8.366567 3.617975 9.271061-0.904494 0.565309 0a33.127084 33.127084 0 0 0 32.448713-32.335652c-0.791432-16.054764-14.358838-34.483825-32.448713-32.448714zM100.003092 880.411615c0 32.22259 6.444518 65.236613 31.205034 87.962019a131.264657 131.264657 0 0 0 93.162858 30.865849c41.719775 0 41.832836-65.349674 0-64.897427a69.532958 69.532958 0 0 1-47.259799-11.306172c-12.323728-10.288617-12.210666-27.247875-12.210666-42.05896 0-41.719775-64.897427-41.832836-64.897427 0z" fill="#FFFFFF" p-id="21026"></path><path d="M170.327482 560.333885l-59.13128 227.254058c-11.306172 45.224688 58.452909 64.897427 70.32439 19.446616l59.131279-227.367119c11.871481-45.224688-58.452909-64.897427-70.324389-19.333555z" fill="#FFECBD" p-id="21027"></path></svg>