<?xml version="1.0" standalone="no"?><!DOCTYPE svg PUBLIC "-//W3C//DTD SVG 1.1//EN" "http://www.w3.org/Graphics/SVG/1.1/DTD/svg11.dtd"><svg t="1677227328393" class="icon" viewBox="0 0 1024 1024" version="1.1" xmlns="http://www.w3.org/2000/svg" p-id="21172" xmlns:xlink="http://www.w3.org/1999/xlink" width="200" height="200"><path d="M497.339269 0.398386a32.814142 32.814142 0 0 0-32.564605 14.473158 146.228802 146.228802 0 0 0-10.480563 132.878562c33.313217 89.209551 51.654201 56.27064 51.654202 92.328765 0 33.437985-11.478711 118.031098-12.47686 130.008884h-0.873381c-2.495372-6.23843-13.35024-32.065531-17.717141-47.162532-4.990744-17.218067 11.728249-57.892632-44.916697-123.645685-28.946316-32.439837-51.903739-35.559052-67.749351-30.443539A37.430581 37.430581 0 0 0 336.138235 208.637184c2.495372 21.959274 16.96853 57.643094 76.233616 92.82784 94.948906 56.395408 76.607922 164.320249 76.607922 164.320249s-9.482414 76.233616 52.153276 120.651238a9.357645 9.357645 0 0 0 9.357645 0.748612 7.985191 7.985191 0 0 0 2.370603-12.851166C535.767999 558.613113 502.205245 524.426516 510.814278 493.982977c0 0 13.35024-56.27064 31.566457-78.229914s175.549424-54.523879 140.489446-143.109586a7.486116 7.486116 0 0 0-1.122917-1.87153c-6.113662-7.985191-50.656053-57.518326-132.504256 74.861162a167.439464 167.439464 0 0 0-19.838208 57.019251 10.355794 10.355794 0 0 1 0 1.871529 572.18881 572.18881 0 0 0-19.713439 57.019252c-3.119215 15.097001-9.482414-89.209551 4.990744-199.629764 0.998149-7.236579 1.247686-33.562754 5.864124-39.426879 18.840059-23.830803 70.244723-78.978525 31.067382-178.793407v-1.122917C548.244859 37.828967 528.157114 5.638667 497.339269 0.398386z" fill="#81A558" p-id="21173"></path><path d="M441.06863 468.155876a166.191778 166.191778 0 0 0 22.583117 301.316175c-129.509809-118.031098-67.375045-241.676783-22.583117-301.316175z" fill="#DD5260" p-id="21174"></path><path d="M548.244859 789.934102a81.22436 81.22436 0 0 1 12.47686-14.597927 166.316547 166.316547 0 1 0-119.653089-307.180299c-44.791928 59.639392-106.926692 183.285077 22.583117 301.316175a174.676043 174.676043 0 0 0 22.583117 6.737505 30.568308 30.568308 0 0 1 12.47686 20.337282C498.337418 810.64569 514.432568 948.639764 687.736156 1023.500926c0 0-175.175118-111.168825-139.491297-233.566824z" fill="#EB676F" p-id="21175"></path><path d="M588.420349 521.182532a66.626434 66.626434 0 0 1 26.201406 45.041466c1.621992 11.229174 18.71529 6.487967 17.093299-4.616438a83.594964 83.594964 0 0 0-34.311366-55.646797c-9.232877-6.737505-18.091447 8.609034-8.983339 15.221769zM631.21598 602.531661a8.858571 8.858571 0 0 0 0-17.717141 8.858571 8.858571 0 0 0 0 17.717141z" fill="#FFFFFF" p-id="21176"></path></svg>